<?xml version="1.0" encoding="iso-8859-1"?>
<!-- Generator: Adobe Illustrator 16.0.0, SVG Export Plug-In . SVG Version: 6.00 Build 0)  -->
<!DOCTYPE svg PUBLIC "-//W3C//DTD SVG 1.1//EN" "http://www.w3.org/Graphics/SVG/1.1/DTD/svg11.dtd">
<svg version="1.1" id="Capa_1" xmlns="http://www.w3.org/2000/svg" xmlns:xlink="http://www.w3.org/1999/xlink" x="0px" y="0px"
	 width="160.171px" height="160.171px" viewBox="0 0 160.171 160.171" style="enable-background:new 0 0 160.171 160.171;"
	 xml:space="preserve">
<g>
	<path d="M158.932,144.401V15.77c0-8.694-7.076-15.77-15.769-15.77H17.008C8.314,0,1.239,7.076,1.239,15.77v128.632
		c0,8.692,7.075,15.77,15.77,15.77h126.155C151.861,160.171,158.932,153.094,158.932,144.401z M148.419,144.401
		c0,2.899-2.361,5.257-5.256,5.257H17.008c-2.899,0-5.256-2.357-5.256-5.257V15.77c0-2.896,2.357-5.256,5.256-5.256h126.155
		c2.895,0,5.256,2.36,5.256,5.256V144.401z"/>
	<path d="M80.086,22.778c-31.603,0-57.31,25.707-57.31,57.308c0,31.604,25.707,57.311,57.31,57.311
		c31.6,0,57.307-25.707,57.307-57.311C137.393,48.485,111.686,22.778,80.086,22.778z M80.086,126.88
		c-25.804,0-46.797-20.991-46.797-46.794c0-25.807,20.99-46.798,46.797-46.798c25.803,0,46.794,20.992,46.794,46.798
		C126.88,105.889,105.889,126.88,80.086,126.88z"/>
	<circle cx="62.855" cy="80.083" r="8.175"/>
	<circle cx="97.316" cy="80.083" r="8.175"/>
</g>
<g>
</g>
<g>
</g>
<g>
</g>
<g>
</g>
<g>
</g>
<g>
</g>
<g>
</g>
<g>
</g>
<g>
</g>
<g>
</g>
<g>
</g>
<g>
</g>
<g>
</g>
<g>
</g>
<g>
</g>
</svg>
